G04 #@! TF.GenerationSoftware,KiCad,Pcbnew,5.1.6-c6e7f7d~87~ubuntu18.04.1*
G04 #@! TF.CreationDate,2020-10-04T00:16:17+02:00*
G04 #@! TF.ProjectId,PicoThermo,5069636f-5468-4657-926d-6f2e6b696361,rev?*
G04 #@! TF.SameCoordinates,Original*
G04 #@! TF.FileFunction,Soldermask,Top*
G04 #@! TF.FilePolarity,Negative*
%FSLAX46Y46*%
G04 Gerber Fmt 4.6, Leading zero omitted, Abs format (unit mm)*
G04 Created by KiCad (PCBNEW 5.1.6-c6e7f7d~87~ubuntu18.04.1) date 2020-10-04 00:16:17*
%MOMM*%
%LPD*%
G01*
G04 APERTURE LIST*
G04 #@! TA.AperFunction,Profile*
%ADD10C,0.100000*%
G04 #@! TD*
%ADD11C,3.200000*%
%ADD12C,1.000000*%
%ADD13C,1.500000*%
%ADD14R,1.050000X1.500000*%
%ADD15O,1.050000X1.500000*%
%ADD16O,1.600000X1.600000*%
%ADD17R,1.600000X1.600000*%
%ADD18O,1.600000X2.400000*%
%ADD19R,1.600000X2.400000*%
%ADD20C,2.000000*%
%ADD21C,1.600000*%
%ADD22C,1.981200*%
%ADD23O,1.700000X1.700000*%
%ADD24R,1.700000X1.700000*%
%ADD25R,1.900000X1.200000*%
%ADD26O,1.900000X1.200000*%
%ADD27R,1.900000X1.500000*%
%ADD28C,1.450000*%
%ADD29R,1.350000X0.400000*%
%ADD30C,2.151380*%
G04 APERTURE END LIST*
D10*
X95000000Y-125000000D02*
X95000000Y-25000000D01*
X195000000Y-125000000D02*
X95000000Y-125000000D01*
X195000000Y-25000000D02*
X195000000Y-125000000D01*
X95000000Y-25000000D02*
X195000000Y-25000000D01*
D11*
G04 #@! TO.C,REF\u002A\u002A*
X100500000Y-120000000D03*
G04 #@! TD*
G04 #@! TO.C,REF\u002A\u002A*
X190000000Y-120000000D03*
G04 #@! TD*
G04 #@! TO.C,REF\u002A\u002A*
X190000000Y-30000000D03*
G04 #@! TD*
G04 #@! TO.C,REF\u002A\u002A*
X100500000Y-30500000D03*
G04 #@! TD*
D12*
G04 #@! TO.C,Y2*
X173000000Y-114100000D03*
X173000000Y-116000000D03*
G04 #@! TD*
D13*
G04 #@! TO.C,Y1*
X152630000Y-113000000D03*
X147750000Y-113000000D03*
G04 #@! TD*
D14*
G04 #@! TO.C,U5*
X123750000Y-59500000D03*
D15*
X121210000Y-59500000D03*
X122480000Y-59500000D03*
G04 #@! TD*
D16*
G04 #@! TO.C,U3*
X160380000Y-119000000D03*
X168000000Y-111380000D03*
X160380000Y-116460000D03*
X168000000Y-113920000D03*
X160380000Y-113920000D03*
X168000000Y-116460000D03*
X160380000Y-111380000D03*
D17*
X168000000Y-119000000D03*
G04 #@! TD*
D18*
G04 #@! TO.C,U2*
X133750000Y-84380000D03*
X151530000Y-92000000D03*
X136290000Y-84380000D03*
X148990000Y-92000000D03*
X138830000Y-84380000D03*
X146450000Y-92000000D03*
X141370000Y-84380000D03*
X143910000Y-92000000D03*
X143910000Y-84380000D03*
X141370000Y-92000000D03*
X146450000Y-84380000D03*
X138830000Y-92000000D03*
X148990000Y-84380000D03*
X136290000Y-92000000D03*
X151530000Y-84380000D03*
D19*
X133750000Y-92000000D03*
G04 #@! TD*
D18*
G04 #@! TO.C,U1*
X129750000Y-98880000D03*
X162770000Y-106500000D03*
X132290000Y-98880000D03*
X160230000Y-106500000D03*
X134830000Y-98880000D03*
X157690000Y-106500000D03*
X137370000Y-98880000D03*
X155150000Y-106500000D03*
X139910000Y-98880000D03*
X152610000Y-106500000D03*
X142450000Y-98880000D03*
X150070000Y-106500000D03*
X144990000Y-98880000D03*
X147530000Y-106500000D03*
X147530000Y-98880000D03*
X144990000Y-106500000D03*
X150070000Y-98880000D03*
X142450000Y-106500000D03*
X152610000Y-98880000D03*
X139910000Y-106500000D03*
X155150000Y-98880000D03*
X137370000Y-106500000D03*
X157690000Y-98880000D03*
X134830000Y-106500000D03*
X160230000Y-98880000D03*
X132290000Y-106500000D03*
X162770000Y-98880000D03*
D19*
X129750000Y-106500000D03*
G04 #@! TD*
D20*
G04 #@! TO.C,SW2*
X120000000Y-100500000D03*
X120000000Y-105000000D03*
X113500000Y-100500000D03*
X113500000Y-105000000D03*
G04 #@! TD*
G04 #@! TO.C,SW1*
X176500000Y-100500000D03*
X176500000Y-105000000D03*
X170000000Y-100500000D03*
X170000000Y-105000000D03*
G04 #@! TD*
D16*
G04 #@! TO.C,R14*
X133500000Y-76410000D03*
D21*
X133500000Y-66250000D03*
G04 #@! TD*
D16*
G04 #@! TO.C,R13*
X145500000Y-76410000D03*
D21*
X145500000Y-66250000D03*
G04 #@! TD*
D16*
G04 #@! TO.C,R12*
X141500000Y-76410000D03*
D21*
X141500000Y-66250000D03*
G04 #@! TD*
D16*
G04 #@! TO.C,R11*
X137500000Y-76410000D03*
D21*
X137500000Y-66250000D03*
G04 #@! TD*
D16*
G04 #@! TO.C,R10*
X129500000Y-76410000D03*
D21*
X129500000Y-66250000D03*
G04 #@! TD*
D16*
G04 #@! TO.C,R9*
X125500000Y-76410000D03*
D21*
X125500000Y-66250000D03*
G04 #@! TD*
D16*
G04 #@! TO.C,R8*
X121500000Y-76410000D03*
D21*
X121500000Y-66250000D03*
G04 #@! TD*
D16*
G04 #@! TO.C,R3*
X125500000Y-93410000D03*
D21*
X125500000Y-83250000D03*
G04 #@! TD*
D16*
G04 #@! TO.C,R2*
X129500000Y-93410000D03*
D21*
X129500000Y-83250000D03*
G04 #@! TD*
D22*
G04 #@! TO.C,LED1*
X137260000Y-35620000D03*
X139800000Y-35620000D03*
X142340000Y-35620000D03*
X144880000Y-35620000D03*
X147420000Y-35620000D03*
X149960000Y-35620000D03*
X152500000Y-35620000D03*
X152500000Y-52080000D03*
X149960000Y-52080000D03*
X147420000Y-52080000D03*
X144880000Y-52080000D03*
X142340000Y-52080000D03*
X139800000Y-52080000D03*
X137260000Y-52080000D03*
G04 #@! TD*
D23*
G04 #@! TO.C,J4*
X106000000Y-70420000D03*
X106000000Y-72960000D03*
D24*
X106000000Y-75500000D03*
G04 #@! TD*
D23*
G04 #@! TO.C,J3*
X129920000Y-112000000D03*
X132460000Y-112000000D03*
D24*
X135000000Y-112000000D03*
G04 #@! TD*
D23*
G04 #@! TO.C,J2*
X168330000Y-91040000D03*
X168330000Y-88500000D03*
X165790000Y-91040000D03*
X165790000Y-88500000D03*
X163250000Y-91040000D03*
D24*
X163250000Y-88500000D03*
G04 #@! TD*
D25*
G04 #@! TO.C,J1*
X96762500Y-99850000D03*
X96762500Y-105650000D03*
D26*
X96762500Y-106250000D03*
X96762500Y-99250000D03*
D27*
X96762500Y-101750000D03*
D28*
X99462500Y-105250000D03*
D29*
X99462500Y-102750000D03*
X99462500Y-103400000D03*
X99462500Y-104050000D03*
X99462500Y-101450000D03*
X99462500Y-102100000D03*
D28*
X99462500Y-100250000D03*
D27*
X96762500Y-103750000D03*
G04 #@! TD*
D21*
G04 #@! TO.C,C2*
X155500000Y-118000000D03*
X153000000Y-118000000D03*
G04 #@! TD*
G04 #@! TO.C,C1*
X145500000Y-118000000D03*
X148000000Y-118000000D03*
G04 #@! TD*
D30*
G04 #@! TO.C,BT1*
X183000000Y-55898320D03*
X183000000Y-35900900D03*
G04 #@! TD*
D16*
G04 #@! TO.C,R17*
X169000000Y-66090000D03*
D21*
X169000000Y-76250000D03*
G04 #@! TD*
D16*
G04 #@! TO.C,R16*
X165500000Y-76410000D03*
D21*
X165500000Y-66250000D03*
G04 #@! TD*
D16*
G04 #@! TO.C,R7*
X153500000Y-76410000D03*
D21*
X153500000Y-66250000D03*
G04 #@! TD*
D16*
G04 #@! TO.C,R6*
X157500000Y-76410000D03*
D21*
X157500000Y-66250000D03*
G04 #@! TD*
D16*
G04 #@! TO.C,R5*
X161500000Y-76410000D03*
D21*
X161500000Y-66250000D03*
G04 #@! TD*
D16*
G04 #@! TO.C,R4*
X149500000Y-76410000D03*
D21*
X149500000Y-66250000D03*
G04 #@! TD*
D16*
G04 #@! TO.C,R1*
X121500000Y-93410000D03*
D21*
X121500000Y-83250000D03*
G04 #@! TD*
D14*
G04 #@! TO.C,Q5*
X169000000Y-59500000D03*
D15*
X166460000Y-59500000D03*
X167730000Y-59500000D03*
G04 #@! TD*
D14*
G04 #@! TO.C,Q4*
X141850000Y-59500000D03*
D15*
X139310000Y-59500000D03*
X140580000Y-59500000D03*
G04 #@! TD*
D14*
G04 #@! TO.C,Q3*
X150900000Y-59500000D03*
D15*
X148360000Y-59500000D03*
X149630000Y-59500000D03*
G04 #@! TD*
D14*
G04 #@! TO.C,Q2*
X159950000Y-59500000D03*
D15*
X157410000Y-59500000D03*
X158680000Y-59500000D03*
G04 #@! TD*
D14*
G04 #@! TO.C,Q1*
X132800000Y-59500000D03*
D15*
X130260000Y-59500000D03*
X131530000Y-59500000D03*
G04 #@! TD*
M02*
