G04 #@! TF.GenerationSoftware,KiCad,Pcbnew,5.1.6-c6e7f7d~87~ubuntu18.04.1*
G04 #@! TF.CreationDate,2020-10-04T00:16:17+02:00*
G04 #@! TF.ProjectId,PicoThermo,5069636f-5468-4657-926d-6f2e6b696361,rev?*
G04 #@! TF.SameCoordinates,Original*
G04 #@! TF.FileFunction,Legend,Top*
G04 #@! TF.FilePolarity,Positive*
%FSLAX46Y46*%
G04 Gerber Fmt 4.6, Leading zero omitted, Abs format (unit mm)*
G04 Created by KiCad (PCBNEW 5.1.6-c6e7f7d~87~ubuntu18.04.1) date 2020-10-04 00:16:17*
%MOMM*%
%LPD*%
G01*
G04 APERTURE LIST*
G04 #@! TA.AperFunction,Profile*
%ADD10C,0.100000*%
G04 #@! TD*
%ADD11C,0.120000*%
%ADD12C,0.127000*%
%ADD13C,0.203200*%
%ADD14C,0.150000*%
%ADD15C,0.025400*%
G04 APERTURE END LIST*
D10*
X95000000Y-125000000D02*
X95000000Y-25000000D01*
X195000000Y-125000000D02*
X95000000Y-125000000D01*
X195000000Y-25000000D02*
X195000000Y-125000000D01*
X95000000Y-25000000D02*
X195000000Y-25000000D01*
D11*
G04 #@! TO.C,Y2*
X173000000Y-113350000D02*
G75*
G02*
X173000000Y-116750000I0J-1700000D01*
G01*
X173000000Y-113350000D02*
G75*
G03*
X173000000Y-116750000I0J-1700000D01*
G01*
G04 #@! TO.C,Y1*
X146990000Y-115525000D02*
X153390000Y-115525000D01*
X146990000Y-110475000D02*
X153390000Y-110475000D01*
X153390000Y-115525000D02*
G75*
G03*
X153390000Y-110475000I0J2525000D01*
G01*
X146990000Y-115525000D02*
G75*
G02*
X146990000Y-110475000I0J2525000D01*
G01*
G04 #@! TO.C,U5*
X124280000Y-57650000D02*
X120680000Y-57650000D01*
X120641522Y-57661522D02*
G75*
G03*
X122480000Y-62100000I1838478J-1838478D01*
G01*
X124318478Y-57661522D02*
G75*
G02*
X122480000Y-62100000I-1838478J-1838478D01*
G01*
G04 #@! TO.C,U3*
X161540000Y-120330000D02*
X163190000Y-120330000D01*
X161540000Y-110050000D02*
X161540000Y-120330000D01*
X166840000Y-110050000D02*
X161540000Y-110050000D01*
X166840000Y-120330000D02*
X166840000Y-110050000D01*
X165190000Y-120330000D02*
X166840000Y-120330000D01*
X163190000Y-120330000D02*
G75*
G02*
X165190000Y-120330000I1000000J0D01*
G01*
G04 #@! TO.C,U2*
X132360000Y-82940000D02*
X132360000Y-93440000D01*
X152920000Y-82940000D02*
X132360000Y-82940000D01*
X152920000Y-93440000D02*
X152920000Y-82940000D01*
X132360000Y-93440000D02*
X152920000Y-93440000D01*
X132420000Y-85940000D02*
X132420000Y-87190000D01*
X152860000Y-85940000D02*
X132420000Y-85940000D01*
X152860000Y-90440000D02*
X152860000Y-85940000D01*
X132420000Y-90440000D02*
X152860000Y-90440000D01*
X132420000Y-89190000D02*
X132420000Y-90440000D01*
X132420000Y-87190000D02*
G75*
G02*
X132420000Y-89190000I0J-1000000D01*
G01*
G04 #@! TO.C,U1*
X128360000Y-97440000D02*
X128360000Y-107940000D01*
X164160000Y-97440000D02*
X128360000Y-97440000D01*
X164160000Y-107940000D02*
X164160000Y-97440000D01*
X128360000Y-107940000D02*
X164160000Y-107940000D01*
X128420000Y-100440000D02*
X128420000Y-101690000D01*
X164100000Y-100440000D02*
X128420000Y-100440000D01*
X164100000Y-104940000D02*
X164100000Y-100440000D01*
X128420000Y-104940000D02*
X164100000Y-104940000D01*
X128420000Y-103690000D02*
X128420000Y-104940000D01*
X128420000Y-101690000D02*
G75*
G02*
X128420000Y-103690000I0J-1000000D01*
G01*
G04 #@! TO.C,SW2*
X120250000Y-103500000D02*
X120250000Y-102000000D01*
X119000000Y-99500000D02*
X114500000Y-99500000D01*
X113250000Y-102000000D02*
X113250000Y-103500000D01*
X114500000Y-106000000D02*
X119000000Y-106000000D01*
G04 #@! TO.C,SW1*
X176750000Y-103500000D02*
X176750000Y-102000000D01*
X175500000Y-99500000D02*
X171000000Y-99500000D01*
X169750000Y-102000000D02*
X169750000Y-103500000D01*
X171000000Y-106000000D02*
X175500000Y-106000000D01*
G04 #@! TO.C,R14*
X133500000Y-75370000D02*
X133500000Y-74600000D01*
X133500000Y-67290000D02*
X133500000Y-68060000D01*
X134870000Y-74600000D02*
X134870000Y-68060000D01*
X132130000Y-74600000D02*
X134870000Y-74600000D01*
X132130000Y-68060000D02*
X132130000Y-74600000D01*
X134870000Y-68060000D02*
X132130000Y-68060000D01*
G04 #@! TO.C,R13*
X145500000Y-75370000D02*
X145500000Y-74600000D01*
X145500000Y-67290000D02*
X145500000Y-68060000D01*
X146870000Y-74600000D02*
X146870000Y-68060000D01*
X144130000Y-74600000D02*
X146870000Y-74600000D01*
X144130000Y-68060000D02*
X144130000Y-74600000D01*
X146870000Y-68060000D02*
X144130000Y-68060000D01*
G04 #@! TO.C,R12*
X141500000Y-75370000D02*
X141500000Y-74600000D01*
X141500000Y-67290000D02*
X141500000Y-68060000D01*
X142870000Y-74600000D02*
X142870000Y-68060000D01*
X140130000Y-74600000D02*
X142870000Y-74600000D01*
X140130000Y-68060000D02*
X140130000Y-74600000D01*
X142870000Y-68060000D02*
X140130000Y-68060000D01*
G04 #@! TO.C,R11*
X137500000Y-75370000D02*
X137500000Y-74600000D01*
X137500000Y-67290000D02*
X137500000Y-68060000D01*
X138870000Y-74600000D02*
X138870000Y-68060000D01*
X136130000Y-74600000D02*
X138870000Y-74600000D01*
X136130000Y-68060000D02*
X136130000Y-74600000D01*
X138870000Y-68060000D02*
X136130000Y-68060000D01*
G04 #@! TO.C,R10*
X129500000Y-75370000D02*
X129500000Y-74600000D01*
X129500000Y-67290000D02*
X129500000Y-68060000D01*
X130870000Y-74600000D02*
X130870000Y-68060000D01*
X128130000Y-74600000D02*
X130870000Y-74600000D01*
X128130000Y-68060000D02*
X128130000Y-74600000D01*
X130870000Y-68060000D02*
X128130000Y-68060000D01*
G04 #@! TO.C,R9*
X125500000Y-75370000D02*
X125500000Y-74600000D01*
X125500000Y-67290000D02*
X125500000Y-68060000D01*
X126870000Y-74600000D02*
X126870000Y-68060000D01*
X124130000Y-74600000D02*
X126870000Y-74600000D01*
X124130000Y-68060000D02*
X124130000Y-74600000D01*
X126870000Y-68060000D02*
X124130000Y-68060000D01*
G04 #@! TO.C,R8*
X121500000Y-75370000D02*
X121500000Y-74600000D01*
X121500000Y-67290000D02*
X121500000Y-68060000D01*
X122870000Y-74600000D02*
X122870000Y-68060000D01*
X120130000Y-74600000D02*
X122870000Y-74600000D01*
X120130000Y-68060000D02*
X120130000Y-74600000D01*
X122870000Y-68060000D02*
X120130000Y-68060000D01*
G04 #@! TO.C,R3*
X125500000Y-92370000D02*
X125500000Y-91600000D01*
X125500000Y-84290000D02*
X125500000Y-85060000D01*
X126870000Y-91600000D02*
X126870000Y-85060000D01*
X124130000Y-91600000D02*
X126870000Y-91600000D01*
X124130000Y-85060000D02*
X124130000Y-91600000D01*
X126870000Y-85060000D02*
X124130000Y-85060000D01*
G04 #@! TO.C,R2*
X129500000Y-92370000D02*
X129500000Y-91600000D01*
X129500000Y-84290000D02*
X129500000Y-85060000D01*
X130870000Y-91600000D02*
X130870000Y-85060000D01*
X128130000Y-91600000D02*
X130870000Y-91600000D01*
X128130000Y-85060000D02*
X128130000Y-91600000D01*
X130870000Y-85060000D02*
X128130000Y-85060000D01*
D12*
G04 #@! TO.C,LED1*
X170050000Y-34400000D02*
X170050000Y-53396520D01*
X119661140Y-53398260D02*
X170050000Y-53396520D01*
X119661140Y-34400000D02*
X170050000Y-34400000D01*
X119661140Y-34400000D02*
X119661140Y-53398260D01*
D11*
G04 #@! TO.C,J4*
X107270000Y-76770000D02*
X106000000Y-76770000D01*
X107270000Y-75500000D02*
X107270000Y-76770000D01*
X104957071Y-70040000D02*
X104560000Y-70040000D01*
X104957071Y-70800000D02*
X104560000Y-70800000D01*
X95900000Y-70040000D02*
X101900000Y-70040000D01*
X95900000Y-70800000D02*
X95900000Y-70040000D01*
X101900000Y-70800000D02*
X95900000Y-70800000D01*
X104560000Y-71690000D02*
X101900000Y-71690000D01*
X104957071Y-72580000D02*
X104560000Y-72580000D01*
X104957071Y-73340000D02*
X104560000Y-73340000D01*
X95900000Y-72580000D02*
X101900000Y-72580000D01*
X95900000Y-73340000D02*
X95900000Y-72580000D01*
X101900000Y-73340000D02*
X95900000Y-73340000D01*
X104560000Y-74230000D02*
X101900000Y-74230000D01*
X104890000Y-75120000D02*
X104560000Y-75120000D01*
X104890000Y-75880000D02*
X104560000Y-75880000D01*
X101900000Y-75220000D02*
X95900000Y-75220000D01*
X101900000Y-75340000D02*
X95900000Y-75340000D01*
X101900000Y-75460000D02*
X95900000Y-75460000D01*
X101900000Y-75580000D02*
X95900000Y-75580000D01*
X101900000Y-75700000D02*
X95900000Y-75700000D01*
X101900000Y-75820000D02*
X95900000Y-75820000D01*
X95900000Y-75120000D02*
X101900000Y-75120000D01*
X95900000Y-75880000D02*
X95900000Y-75120000D01*
X101900000Y-75880000D02*
X95900000Y-75880000D01*
X101900000Y-76830000D02*
X104560000Y-76830000D01*
X101900000Y-69090000D02*
X101900000Y-76830000D01*
X104560000Y-69090000D02*
X101900000Y-69090000D01*
X104560000Y-76830000D02*
X104560000Y-69090000D01*
G04 #@! TO.C,J3*
X136330000Y-110670000D02*
X136330000Y-112000000D01*
X135000000Y-110670000D02*
X136330000Y-110670000D01*
X133730000Y-110670000D02*
X133730000Y-113330000D01*
X133730000Y-113330000D02*
X128590000Y-113330000D01*
X133730000Y-110670000D02*
X128590000Y-110670000D01*
X128590000Y-110670000D02*
X128590000Y-113330000D01*
G04 #@! TO.C,J2*
X161920000Y-88500000D02*
X161920000Y-87170000D01*
X161920000Y-87170000D02*
X163250000Y-87170000D01*
X161920000Y-89770000D02*
X164520000Y-89770000D01*
X164520000Y-89770000D02*
X164520000Y-87170000D01*
X164520000Y-87170000D02*
X169660000Y-87170000D01*
X169660000Y-92370000D02*
X169660000Y-87170000D01*
X161920000Y-92370000D02*
X169660000Y-92370000D01*
X161920000Y-92370000D02*
X161920000Y-89770000D01*
G04 #@! TO.C,J1*
X100312500Y-101050000D02*
X99862500Y-101050000D01*
X100312500Y-101050000D02*
X100312500Y-101500000D01*
X99762500Y-106650000D02*
X99762500Y-106200000D01*
X97912500Y-106650000D02*
X99762500Y-106650000D01*
X95362500Y-98850000D02*
X95612500Y-98850000D01*
X95362500Y-106650000D02*
X95612500Y-106650000D01*
X97912500Y-98850000D02*
X99762500Y-98850000D01*
X99762500Y-98850000D02*
X99762500Y-99300000D01*
G04 #@! TO.C,C2*
X156070000Y-118925000D02*
X156070000Y-119170000D01*
X156070000Y-116830000D02*
X156070000Y-117075000D01*
X152430000Y-118925000D02*
X152430000Y-119170000D01*
X152430000Y-116830000D02*
X152430000Y-117075000D01*
X152430000Y-119170000D02*
X156070000Y-119170000D01*
X152430000Y-116830000D02*
X156070000Y-116830000D01*
G04 #@! TO.C,C1*
X144930000Y-117075000D02*
X144930000Y-116830000D01*
X144930000Y-119170000D02*
X144930000Y-118925000D01*
X148570000Y-117075000D02*
X148570000Y-116830000D01*
X148570000Y-119170000D02*
X148570000Y-118925000D01*
X148570000Y-116830000D02*
X144930000Y-116830000D01*
X148570000Y-119170000D02*
X144930000Y-119170000D01*
D13*
G04 #@! TO.C,BT1*
X179200160Y-58288460D02*
X186799840Y-58288460D01*
X186799840Y-34430240D02*
X186799840Y-37412200D01*
X179200160Y-34430240D02*
X186799840Y-34430240D01*
X179200160Y-37412200D02*
X179200160Y-34430240D01*
X186811848Y-58281525D02*
G75*
G03*
X186799840Y-37412200I-3824548J10432465D01*
G01*
X179186512Y-37414655D02*
G75*
G03*
X179200160Y-58288460I3826188J-10434405D01*
G01*
D11*
G04 #@! TO.C,R17*
X167630000Y-74440000D02*
X170370000Y-74440000D01*
X170370000Y-74440000D02*
X170370000Y-67900000D01*
X170370000Y-67900000D02*
X167630000Y-67900000D01*
X167630000Y-67900000D02*
X167630000Y-74440000D01*
X169000000Y-75210000D02*
X169000000Y-74440000D01*
X169000000Y-67130000D02*
X169000000Y-67900000D01*
G04 #@! TO.C,R16*
X166870000Y-68060000D02*
X164130000Y-68060000D01*
X164130000Y-68060000D02*
X164130000Y-74600000D01*
X164130000Y-74600000D02*
X166870000Y-74600000D01*
X166870000Y-74600000D02*
X166870000Y-68060000D01*
X165500000Y-67290000D02*
X165500000Y-68060000D01*
X165500000Y-75370000D02*
X165500000Y-74600000D01*
G04 #@! TO.C,R7*
X154870000Y-68060000D02*
X152130000Y-68060000D01*
X152130000Y-68060000D02*
X152130000Y-74600000D01*
X152130000Y-74600000D02*
X154870000Y-74600000D01*
X154870000Y-74600000D02*
X154870000Y-68060000D01*
X153500000Y-67290000D02*
X153500000Y-68060000D01*
X153500000Y-75370000D02*
X153500000Y-74600000D01*
G04 #@! TO.C,R6*
X158870000Y-68060000D02*
X156130000Y-68060000D01*
X156130000Y-68060000D02*
X156130000Y-74600000D01*
X156130000Y-74600000D02*
X158870000Y-74600000D01*
X158870000Y-74600000D02*
X158870000Y-68060000D01*
X157500000Y-67290000D02*
X157500000Y-68060000D01*
X157500000Y-75370000D02*
X157500000Y-74600000D01*
G04 #@! TO.C,R5*
X162870000Y-68060000D02*
X160130000Y-68060000D01*
X160130000Y-68060000D02*
X160130000Y-74600000D01*
X160130000Y-74600000D02*
X162870000Y-74600000D01*
X162870000Y-74600000D02*
X162870000Y-68060000D01*
X161500000Y-67290000D02*
X161500000Y-68060000D01*
X161500000Y-75370000D02*
X161500000Y-74600000D01*
G04 #@! TO.C,R4*
X150870000Y-68060000D02*
X148130000Y-68060000D01*
X148130000Y-68060000D02*
X148130000Y-74600000D01*
X148130000Y-74600000D02*
X150870000Y-74600000D01*
X150870000Y-74600000D02*
X150870000Y-68060000D01*
X149500000Y-67290000D02*
X149500000Y-68060000D01*
X149500000Y-75370000D02*
X149500000Y-74600000D01*
G04 #@! TO.C,R1*
X122870000Y-85060000D02*
X120130000Y-85060000D01*
X120130000Y-85060000D02*
X120130000Y-91600000D01*
X120130000Y-91600000D02*
X122870000Y-91600000D01*
X122870000Y-91600000D02*
X122870000Y-85060000D01*
X121500000Y-84290000D02*
X121500000Y-85060000D01*
X121500000Y-92370000D02*
X121500000Y-91600000D01*
G04 #@! TO.C,Q5*
X169530000Y-57650000D02*
X165930000Y-57650000D01*
X165891522Y-57661522D02*
G75*
G03*
X167730000Y-62100000I1838478J-1838478D01*
G01*
X169568478Y-57661522D02*
G75*
G02*
X167730000Y-62100000I-1838478J-1838478D01*
G01*
G04 #@! TO.C,Q4*
X142380000Y-57650000D02*
X138780000Y-57650000D01*
X138741522Y-57661522D02*
G75*
G03*
X140580000Y-62100000I1838478J-1838478D01*
G01*
X142418478Y-57661522D02*
G75*
G02*
X140580000Y-62100000I-1838478J-1838478D01*
G01*
G04 #@! TO.C,Q3*
X151430000Y-57650000D02*
X147830000Y-57650000D01*
X147791522Y-57661522D02*
G75*
G03*
X149630000Y-62100000I1838478J-1838478D01*
G01*
X151468478Y-57661522D02*
G75*
G02*
X149630000Y-62100000I-1838478J-1838478D01*
G01*
G04 #@! TO.C,Q2*
X160480000Y-57650000D02*
X156880000Y-57650000D01*
X156841522Y-57661522D02*
G75*
G03*
X158680000Y-62100000I1838478J-1838478D01*
G01*
X160518478Y-57661522D02*
G75*
G02*
X158680000Y-62100000I-1838478J-1838478D01*
G01*
G04 #@! TO.C,Q1*
X133330000Y-57650000D02*
X129730000Y-57650000D01*
X129691522Y-57661522D02*
G75*
G03*
X131530000Y-62100000I1838478J-1838478D01*
G01*
X133368478Y-57661522D02*
G75*
G02*
X131530000Y-62100000I-1838478J-1838478D01*
G01*
G04 #@! TD*
G04 #@! TO.C,REF\u002A\u002A*
D14*
X99166666Y-116252380D02*
X98833333Y-115776190D01*
X98595238Y-116252380D02*
X98595238Y-115252380D01*
X98976190Y-115252380D01*
X99071428Y-115300000D01*
X99119047Y-115347619D01*
X99166666Y-115442857D01*
X99166666Y-115585714D01*
X99119047Y-115680952D01*
X99071428Y-115728571D01*
X98976190Y-115776190D01*
X98595238Y-115776190D01*
X99595238Y-115728571D02*
X99928571Y-115728571D01*
X100071428Y-116252380D02*
X99595238Y-116252380D01*
X99595238Y-115252380D01*
X100071428Y-115252380D01*
X100833333Y-115728571D02*
X100500000Y-115728571D01*
X100500000Y-116252380D02*
X100500000Y-115252380D01*
X100976190Y-115252380D01*
X101500000Y-115252380D02*
X101500000Y-115490476D01*
X101261904Y-115395238D02*
X101500000Y-115490476D01*
X101738095Y-115395238D01*
X101357142Y-115680952D02*
X101500000Y-115490476D01*
X101642857Y-115680952D01*
X102261904Y-115252380D02*
X102261904Y-115490476D01*
X102023809Y-115395238D02*
X102261904Y-115490476D01*
X102500000Y-115395238D01*
X102119047Y-115680952D02*
X102261904Y-115490476D01*
X102404761Y-115680952D01*
X188666666Y-116252380D02*
X188333333Y-115776190D01*
X188095238Y-116252380D02*
X188095238Y-115252380D01*
X188476190Y-115252380D01*
X188571428Y-115300000D01*
X188619047Y-115347619D01*
X188666666Y-115442857D01*
X188666666Y-115585714D01*
X188619047Y-115680952D01*
X188571428Y-115728571D01*
X188476190Y-115776190D01*
X188095238Y-115776190D01*
X189095238Y-115728571D02*
X189428571Y-115728571D01*
X189571428Y-116252380D02*
X189095238Y-116252380D01*
X189095238Y-115252380D01*
X189571428Y-115252380D01*
X190333333Y-115728571D02*
X190000000Y-115728571D01*
X190000000Y-116252380D02*
X190000000Y-115252380D01*
X190476190Y-115252380D01*
X191000000Y-115252380D02*
X191000000Y-115490476D01*
X190761904Y-115395238D02*
X191000000Y-115490476D01*
X191238095Y-115395238D01*
X190857142Y-115680952D02*
X191000000Y-115490476D01*
X191142857Y-115680952D01*
X191761904Y-115252380D02*
X191761904Y-115490476D01*
X191523809Y-115395238D02*
X191761904Y-115490476D01*
X192000000Y-115395238D01*
X191619047Y-115680952D02*
X191761904Y-115490476D01*
X191904761Y-115680952D01*
X188666666Y-26252380D02*
X188333333Y-25776190D01*
X188095238Y-26252380D02*
X188095238Y-25252380D01*
X188476190Y-25252380D01*
X188571428Y-25300000D01*
X188619047Y-25347619D01*
X188666666Y-25442857D01*
X188666666Y-25585714D01*
X188619047Y-25680952D01*
X188571428Y-25728571D01*
X188476190Y-25776190D01*
X188095238Y-25776190D01*
X189095238Y-25728571D02*
X189428571Y-25728571D01*
X189571428Y-26252380D02*
X189095238Y-26252380D01*
X189095238Y-25252380D01*
X189571428Y-25252380D01*
X190333333Y-25728571D02*
X190000000Y-25728571D01*
X190000000Y-26252380D02*
X190000000Y-25252380D01*
X190476190Y-25252380D01*
X191000000Y-25252380D02*
X191000000Y-25490476D01*
X190761904Y-25395238D02*
X191000000Y-25490476D01*
X191238095Y-25395238D01*
X190857142Y-25680952D02*
X191000000Y-25490476D01*
X191142857Y-25680952D01*
X191761904Y-25252380D02*
X191761904Y-25490476D01*
X191523809Y-25395238D02*
X191761904Y-25490476D01*
X192000000Y-25395238D01*
X191619047Y-25680952D02*
X191761904Y-25490476D01*
X191904761Y-25680952D01*
X99166666Y-26752380D02*
X98833333Y-26276190D01*
X98595238Y-26752380D02*
X98595238Y-25752380D01*
X98976190Y-25752380D01*
X99071428Y-25800000D01*
X99119047Y-25847619D01*
X99166666Y-25942857D01*
X99166666Y-26085714D01*
X99119047Y-26180952D01*
X99071428Y-26228571D01*
X98976190Y-26276190D01*
X98595238Y-26276190D01*
X99595238Y-26228571D02*
X99928571Y-26228571D01*
X100071428Y-26752380D02*
X99595238Y-26752380D01*
X99595238Y-25752380D01*
X100071428Y-25752380D01*
X100833333Y-26228571D02*
X100500000Y-26228571D01*
X100500000Y-26752380D02*
X100500000Y-25752380D01*
X100976190Y-25752380D01*
X101500000Y-25752380D02*
X101500000Y-25990476D01*
X101261904Y-25895238D02*
X101500000Y-25990476D01*
X101738095Y-25895238D01*
X101357142Y-26180952D02*
X101500000Y-25990476D01*
X101642857Y-26180952D01*
X102261904Y-25752380D02*
X102261904Y-25990476D01*
X102023809Y-25895238D02*
X102261904Y-25990476D01*
X102500000Y-25895238D01*
X102119047Y-26180952D02*
X102261904Y-25990476D01*
X102404761Y-26180952D01*
G04 #@! TO.C,Y2*
X170276190Y-115526190D02*
X170752380Y-115526190D01*
X169752380Y-115859523D02*
X170276190Y-115526190D01*
X169752380Y-115192857D01*
X169847619Y-114907142D02*
X169800000Y-114859523D01*
X169752380Y-114764285D01*
X169752380Y-114526190D01*
X169800000Y-114430952D01*
X169847619Y-114383333D01*
X169942857Y-114335714D01*
X170038095Y-114335714D01*
X170180952Y-114383333D01*
X170752380Y-114954761D01*
X170752380Y-114335714D01*
G04 #@! TO.C,Y1*
X149713809Y-109451190D02*
X149713809Y-109927380D01*
X149380476Y-108927380D02*
X149713809Y-109451190D01*
X150047142Y-108927380D01*
X150904285Y-109927380D02*
X150332857Y-109927380D01*
X150618571Y-109927380D02*
X150618571Y-108927380D01*
X150523333Y-109070238D01*
X150428095Y-109165476D01*
X150332857Y-109213095D01*
G04 #@! TO.C,U5*
X121718095Y-62512380D02*
X121718095Y-63321904D01*
X121765714Y-63417142D01*
X121813333Y-63464761D01*
X121908571Y-63512380D01*
X122099047Y-63512380D01*
X122194285Y-63464761D01*
X122241904Y-63417142D01*
X122289523Y-63321904D01*
X122289523Y-62512380D01*
X123241904Y-62512380D02*
X122765714Y-62512380D01*
X122718095Y-62988571D01*
X122765714Y-62940952D01*
X122860952Y-62893333D01*
X123099047Y-62893333D01*
X123194285Y-62940952D01*
X123241904Y-62988571D01*
X123289523Y-63083809D01*
X123289523Y-63321904D01*
X123241904Y-63417142D01*
X123194285Y-63464761D01*
X123099047Y-63512380D01*
X122860952Y-63512380D01*
X122765714Y-63464761D01*
X122718095Y-63417142D01*
G04 #@! TO.C,U3*
X163428095Y-120782380D02*
X163428095Y-121591904D01*
X163475714Y-121687142D01*
X163523333Y-121734761D01*
X163618571Y-121782380D01*
X163809047Y-121782380D01*
X163904285Y-121734761D01*
X163951904Y-121687142D01*
X163999523Y-121591904D01*
X163999523Y-120782380D01*
X164380476Y-120782380D02*
X164999523Y-120782380D01*
X164666190Y-121163333D01*
X164809047Y-121163333D01*
X164904285Y-121210952D01*
X164951904Y-121258571D01*
X164999523Y-121353809D01*
X164999523Y-121591904D01*
X164951904Y-121687142D01*
X164904285Y-121734761D01*
X164809047Y-121782380D01*
X164523333Y-121782380D01*
X164428095Y-121734761D01*
X164380476Y-121687142D01*
G04 #@! TO.C,U2*
X130872380Y-88951904D02*
X131681904Y-88951904D01*
X131777142Y-88904285D01*
X131824761Y-88856666D01*
X131872380Y-88761428D01*
X131872380Y-88570952D01*
X131824761Y-88475714D01*
X131777142Y-88428095D01*
X131681904Y-88380476D01*
X130872380Y-88380476D01*
X130967619Y-87951904D02*
X130920000Y-87904285D01*
X130872380Y-87809047D01*
X130872380Y-87570952D01*
X130920000Y-87475714D01*
X130967619Y-87428095D01*
X131062857Y-87380476D01*
X131158095Y-87380476D01*
X131300952Y-87428095D01*
X131872380Y-87999523D01*
X131872380Y-87380476D01*
G04 #@! TO.C,U1*
X126872380Y-103451904D02*
X127681904Y-103451904D01*
X127777142Y-103404285D01*
X127824761Y-103356666D01*
X127872380Y-103261428D01*
X127872380Y-103070952D01*
X127824761Y-102975714D01*
X127777142Y-102928095D01*
X127681904Y-102880476D01*
X126872380Y-102880476D01*
X127872380Y-101880476D02*
X127872380Y-102451904D01*
X127872380Y-102166190D02*
X126872380Y-102166190D01*
X127015238Y-102261428D01*
X127110476Y-102356666D01*
X127158095Y-102451904D01*
G04 #@! TO.C,SW2*
X115416666Y-98904761D02*
X115559523Y-98952380D01*
X115797619Y-98952380D01*
X115892857Y-98904761D01*
X115940476Y-98857142D01*
X115988095Y-98761904D01*
X115988095Y-98666666D01*
X115940476Y-98571428D01*
X115892857Y-98523809D01*
X115797619Y-98476190D01*
X115607142Y-98428571D01*
X115511904Y-98380952D01*
X115464285Y-98333333D01*
X115416666Y-98238095D01*
X115416666Y-98142857D01*
X115464285Y-98047619D01*
X115511904Y-98000000D01*
X115607142Y-97952380D01*
X115845238Y-97952380D01*
X115988095Y-98000000D01*
X116321428Y-97952380D02*
X116559523Y-98952380D01*
X116750000Y-98238095D01*
X116940476Y-98952380D01*
X117178571Y-97952380D01*
X117511904Y-98047619D02*
X117559523Y-98000000D01*
X117654761Y-97952380D01*
X117892857Y-97952380D01*
X117988095Y-98000000D01*
X118035714Y-98047619D01*
X118083333Y-98142857D01*
X118083333Y-98238095D01*
X118035714Y-98380952D01*
X117464285Y-98952380D01*
X118083333Y-98952380D01*
G04 #@! TO.C,SW1*
X171916666Y-98904761D02*
X172059523Y-98952380D01*
X172297619Y-98952380D01*
X172392857Y-98904761D01*
X172440476Y-98857142D01*
X172488095Y-98761904D01*
X172488095Y-98666666D01*
X172440476Y-98571428D01*
X172392857Y-98523809D01*
X172297619Y-98476190D01*
X172107142Y-98428571D01*
X172011904Y-98380952D01*
X171964285Y-98333333D01*
X171916666Y-98238095D01*
X171916666Y-98142857D01*
X171964285Y-98047619D01*
X172011904Y-98000000D01*
X172107142Y-97952380D01*
X172345238Y-97952380D01*
X172488095Y-98000000D01*
X172821428Y-97952380D02*
X173059523Y-98952380D01*
X173250000Y-98238095D01*
X173440476Y-98952380D01*
X173678571Y-97952380D01*
X174583333Y-98952380D02*
X174011904Y-98952380D01*
X174297619Y-98952380D02*
X174297619Y-97952380D01*
X174202380Y-98095238D01*
X174107142Y-98190476D01*
X174011904Y-98238095D01*
G04 #@! TO.C,R14*
X136322380Y-71972857D02*
X135846190Y-72306190D01*
X136322380Y-72544285D02*
X135322380Y-72544285D01*
X135322380Y-72163333D01*
X135370000Y-72068095D01*
X135417619Y-72020476D01*
X135512857Y-71972857D01*
X135655714Y-71972857D01*
X135750952Y-72020476D01*
X135798571Y-72068095D01*
X135846190Y-72163333D01*
X135846190Y-72544285D01*
X136322380Y-71020476D02*
X136322380Y-71591904D01*
X136322380Y-71306190D02*
X135322380Y-71306190D01*
X135465238Y-71401428D01*
X135560476Y-71496666D01*
X135608095Y-71591904D01*
X135655714Y-70163333D02*
X136322380Y-70163333D01*
X135274761Y-70401428D02*
X135989047Y-70639523D01*
X135989047Y-70020476D01*
G04 #@! TO.C,R13*
X148322380Y-71972857D02*
X147846190Y-72306190D01*
X148322380Y-72544285D02*
X147322380Y-72544285D01*
X147322380Y-72163333D01*
X147370000Y-72068095D01*
X147417619Y-72020476D01*
X147512857Y-71972857D01*
X147655714Y-71972857D01*
X147750952Y-72020476D01*
X147798571Y-72068095D01*
X147846190Y-72163333D01*
X147846190Y-72544285D01*
X148322380Y-71020476D02*
X148322380Y-71591904D01*
X148322380Y-71306190D02*
X147322380Y-71306190D01*
X147465238Y-71401428D01*
X147560476Y-71496666D01*
X147608095Y-71591904D01*
X147322380Y-70687142D02*
X147322380Y-70068095D01*
X147703333Y-70401428D01*
X147703333Y-70258571D01*
X147750952Y-70163333D01*
X147798571Y-70115714D01*
X147893809Y-70068095D01*
X148131904Y-70068095D01*
X148227142Y-70115714D01*
X148274761Y-70163333D01*
X148322380Y-70258571D01*
X148322380Y-70544285D01*
X148274761Y-70639523D01*
X148227142Y-70687142D01*
G04 #@! TO.C,R12*
X144322380Y-71972857D02*
X143846190Y-72306190D01*
X144322380Y-72544285D02*
X143322380Y-72544285D01*
X143322380Y-72163333D01*
X143370000Y-72068095D01*
X143417619Y-72020476D01*
X143512857Y-71972857D01*
X143655714Y-71972857D01*
X143750952Y-72020476D01*
X143798571Y-72068095D01*
X143846190Y-72163333D01*
X143846190Y-72544285D01*
X144322380Y-71020476D02*
X144322380Y-71591904D01*
X144322380Y-71306190D02*
X143322380Y-71306190D01*
X143465238Y-71401428D01*
X143560476Y-71496666D01*
X143608095Y-71591904D01*
X143417619Y-70639523D02*
X143370000Y-70591904D01*
X143322380Y-70496666D01*
X143322380Y-70258571D01*
X143370000Y-70163333D01*
X143417619Y-70115714D01*
X143512857Y-70068095D01*
X143608095Y-70068095D01*
X143750952Y-70115714D01*
X144322380Y-70687142D01*
X144322380Y-70068095D01*
G04 #@! TO.C,R11*
X140322380Y-71972857D02*
X139846190Y-72306190D01*
X140322380Y-72544285D02*
X139322380Y-72544285D01*
X139322380Y-72163333D01*
X139370000Y-72068095D01*
X139417619Y-72020476D01*
X139512857Y-71972857D01*
X139655714Y-71972857D01*
X139750952Y-72020476D01*
X139798571Y-72068095D01*
X139846190Y-72163333D01*
X139846190Y-72544285D01*
X140322380Y-71020476D02*
X140322380Y-71591904D01*
X140322380Y-71306190D02*
X139322380Y-71306190D01*
X139465238Y-71401428D01*
X139560476Y-71496666D01*
X139608095Y-71591904D01*
X140322380Y-70068095D02*
X140322380Y-70639523D01*
X140322380Y-70353809D02*
X139322380Y-70353809D01*
X139465238Y-70449047D01*
X139560476Y-70544285D01*
X139608095Y-70639523D01*
G04 #@! TO.C,R10*
X132322380Y-71972857D02*
X131846190Y-72306190D01*
X132322380Y-72544285D02*
X131322380Y-72544285D01*
X131322380Y-72163333D01*
X131370000Y-72068095D01*
X131417619Y-72020476D01*
X131512857Y-71972857D01*
X131655714Y-71972857D01*
X131750952Y-72020476D01*
X131798571Y-72068095D01*
X131846190Y-72163333D01*
X131846190Y-72544285D01*
X132322380Y-71020476D02*
X132322380Y-71591904D01*
X132322380Y-71306190D02*
X131322380Y-71306190D01*
X131465238Y-71401428D01*
X131560476Y-71496666D01*
X131608095Y-71591904D01*
X131322380Y-70401428D02*
X131322380Y-70306190D01*
X131370000Y-70210952D01*
X131417619Y-70163333D01*
X131512857Y-70115714D01*
X131703333Y-70068095D01*
X131941428Y-70068095D01*
X132131904Y-70115714D01*
X132227142Y-70163333D01*
X132274761Y-70210952D01*
X132322380Y-70306190D01*
X132322380Y-70401428D01*
X132274761Y-70496666D01*
X132227142Y-70544285D01*
X132131904Y-70591904D01*
X131941428Y-70639523D01*
X131703333Y-70639523D01*
X131512857Y-70591904D01*
X131417619Y-70544285D01*
X131370000Y-70496666D01*
X131322380Y-70401428D01*
G04 #@! TO.C,R9*
X128322380Y-71496666D02*
X127846190Y-71830000D01*
X128322380Y-72068095D02*
X127322380Y-72068095D01*
X127322380Y-71687142D01*
X127370000Y-71591904D01*
X127417619Y-71544285D01*
X127512857Y-71496666D01*
X127655714Y-71496666D01*
X127750952Y-71544285D01*
X127798571Y-71591904D01*
X127846190Y-71687142D01*
X127846190Y-72068095D01*
X128322380Y-71020476D02*
X128322380Y-70830000D01*
X128274761Y-70734761D01*
X128227142Y-70687142D01*
X128084285Y-70591904D01*
X127893809Y-70544285D01*
X127512857Y-70544285D01*
X127417619Y-70591904D01*
X127370000Y-70639523D01*
X127322380Y-70734761D01*
X127322380Y-70925238D01*
X127370000Y-71020476D01*
X127417619Y-71068095D01*
X127512857Y-71115714D01*
X127750952Y-71115714D01*
X127846190Y-71068095D01*
X127893809Y-71020476D01*
X127941428Y-70925238D01*
X127941428Y-70734761D01*
X127893809Y-70639523D01*
X127846190Y-70591904D01*
X127750952Y-70544285D01*
G04 #@! TO.C,R8*
X124322380Y-71496666D02*
X123846190Y-71830000D01*
X124322380Y-72068095D02*
X123322380Y-72068095D01*
X123322380Y-71687142D01*
X123370000Y-71591904D01*
X123417619Y-71544285D01*
X123512857Y-71496666D01*
X123655714Y-71496666D01*
X123750952Y-71544285D01*
X123798571Y-71591904D01*
X123846190Y-71687142D01*
X123846190Y-72068095D01*
X123750952Y-70925238D02*
X123703333Y-71020476D01*
X123655714Y-71068095D01*
X123560476Y-71115714D01*
X123512857Y-71115714D01*
X123417619Y-71068095D01*
X123370000Y-71020476D01*
X123322380Y-70925238D01*
X123322380Y-70734761D01*
X123370000Y-70639523D01*
X123417619Y-70591904D01*
X123512857Y-70544285D01*
X123560476Y-70544285D01*
X123655714Y-70591904D01*
X123703333Y-70639523D01*
X123750952Y-70734761D01*
X123750952Y-70925238D01*
X123798571Y-71020476D01*
X123846190Y-71068095D01*
X123941428Y-71115714D01*
X124131904Y-71115714D01*
X124227142Y-71068095D01*
X124274761Y-71020476D01*
X124322380Y-70925238D01*
X124322380Y-70734761D01*
X124274761Y-70639523D01*
X124227142Y-70591904D01*
X124131904Y-70544285D01*
X123941428Y-70544285D01*
X123846190Y-70591904D01*
X123798571Y-70639523D01*
X123750952Y-70734761D01*
G04 #@! TO.C,R3*
X128322380Y-88496666D02*
X127846190Y-88830000D01*
X128322380Y-89068095D02*
X127322380Y-89068095D01*
X127322380Y-88687142D01*
X127370000Y-88591904D01*
X127417619Y-88544285D01*
X127512857Y-88496666D01*
X127655714Y-88496666D01*
X127750952Y-88544285D01*
X127798571Y-88591904D01*
X127846190Y-88687142D01*
X127846190Y-89068095D01*
X127322380Y-88163333D02*
X127322380Y-87544285D01*
X127703333Y-87877619D01*
X127703333Y-87734761D01*
X127750952Y-87639523D01*
X127798571Y-87591904D01*
X127893809Y-87544285D01*
X128131904Y-87544285D01*
X128227142Y-87591904D01*
X128274761Y-87639523D01*
X128322380Y-87734761D01*
X128322380Y-88020476D01*
X128274761Y-88115714D01*
X128227142Y-88163333D01*
G04 #@! TO.C,R2*
X132322380Y-88496666D02*
X131846190Y-88830000D01*
X132322380Y-89068095D02*
X131322380Y-89068095D01*
X131322380Y-88687142D01*
X131370000Y-88591904D01*
X131417619Y-88544285D01*
X131512857Y-88496666D01*
X131655714Y-88496666D01*
X131750952Y-88544285D01*
X131798571Y-88591904D01*
X131846190Y-88687142D01*
X131846190Y-89068095D01*
X131417619Y-88115714D02*
X131370000Y-88068095D01*
X131322380Y-87972857D01*
X131322380Y-87734761D01*
X131370000Y-87639523D01*
X131417619Y-87591904D01*
X131512857Y-87544285D01*
X131608095Y-87544285D01*
X131750952Y-87591904D01*
X132322380Y-88163333D01*
X132322380Y-87544285D01*
G04 #@! TO.C,LED1*
D15*
X120311259Y-40236947D02*
X120117735Y-40236947D01*
X120117735Y-39830547D01*
X120446725Y-40024071D02*
X120582192Y-40024071D01*
X120640249Y-40236947D02*
X120446725Y-40236947D01*
X120446725Y-39830547D01*
X120640249Y-39830547D01*
X120814420Y-40236947D02*
X120814420Y-39830547D01*
X120911182Y-39830547D01*
X120969240Y-39849900D01*
X121007944Y-39888604D01*
X121027297Y-39927309D01*
X121046649Y-40004719D01*
X121046649Y-40062776D01*
X121027297Y-40140185D01*
X121007944Y-40178890D01*
X120969240Y-40217595D01*
X120911182Y-40236947D01*
X120814420Y-40236947D01*
X121433697Y-40236947D02*
X121201468Y-40236947D01*
X121317582Y-40236947D02*
X121317582Y-39830547D01*
X121278878Y-39888604D01*
X121240173Y-39927309D01*
X121201468Y-39946661D01*
X116787916Y-53810707D02*
X117058849Y-53810707D01*
X116884678Y-54217107D01*
X117213668Y-54062288D02*
X117523306Y-54062288D01*
X117697478Y-54197755D02*
X117755535Y-54217107D01*
X117852297Y-54217107D01*
X117891001Y-54197755D01*
X117910354Y-54178402D01*
X117929706Y-54139698D01*
X117929706Y-54100993D01*
X117910354Y-54062288D01*
X117891001Y-54042936D01*
X117852297Y-54023583D01*
X117774887Y-54004231D01*
X117736182Y-53984879D01*
X117716830Y-53965526D01*
X117697478Y-53926821D01*
X117697478Y-53888117D01*
X117716830Y-53849412D01*
X117736182Y-53830060D01*
X117774887Y-53810707D01*
X117871649Y-53810707D01*
X117929706Y-53830060D01*
X118103878Y-54004231D02*
X118239344Y-54004231D01*
X118297401Y-54217107D02*
X118103878Y-54217107D01*
X118103878Y-53810707D01*
X118297401Y-53810707D01*
X118684449Y-53830060D02*
X118645744Y-53810707D01*
X118587687Y-53810707D01*
X118529630Y-53830060D01*
X118490925Y-53868764D01*
X118471573Y-53907469D01*
X118452220Y-53984879D01*
X118452220Y-54042936D01*
X118471573Y-54120345D01*
X118490925Y-54159050D01*
X118529630Y-54197755D01*
X118587687Y-54217107D01*
X118626392Y-54217107D01*
X118684449Y-54197755D01*
X118703801Y-54178402D01*
X118703801Y-54042936D01*
X118626392Y-54042936D01*
X118877973Y-54217107D02*
X118877973Y-53810707D01*
X119013440Y-54100993D01*
X119148906Y-53810707D01*
X119148906Y-54217107D01*
X119342430Y-54004231D02*
X119477897Y-54004231D01*
X119535954Y-54217107D02*
X119342430Y-54217107D01*
X119342430Y-53810707D01*
X119535954Y-53810707D01*
X119710125Y-54217107D02*
X119710125Y-53810707D01*
X119942354Y-54217107D01*
X119942354Y-53810707D01*
X120077820Y-53810707D02*
X120310049Y-53810707D01*
X120193935Y-54217107D02*
X120193935Y-53810707D01*
X120445516Y-54062288D02*
X120755154Y-54062288D01*
X121122849Y-53946174D02*
X121122849Y-54217107D01*
X121026087Y-53791355D02*
X120929325Y-54081640D01*
X121180906Y-54081640D01*
X121335725Y-54217107D02*
X121335725Y-53810707D01*
X121432487Y-53810707D01*
X121490544Y-53830060D01*
X121529249Y-53868764D01*
X121548601Y-53907469D01*
X121567954Y-53984879D01*
X121567954Y-54042936D01*
X121548601Y-54120345D01*
X121529249Y-54159050D01*
X121490544Y-54197755D01*
X121432487Y-54217107D01*
X121335725Y-54217107D01*
X121742125Y-54217107D02*
X121742125Y-53810707D01*
X122148525Y-53830060D02*
X122109820Y-53810707D01*
X122051763Y-53810707D01*
X121993706Y-53830060D01*
X121955001Y-53868764D01*
X121935649Y-53907469D01*
X121916297Y-53984879D01*
X121916297Y-54042936D01*
X121935649Y-54120345D01*
X121955001Y-54159050D01*
X121993706Y-54197755D01*
X122051763Y-54217107D01*
X122090468Y-54217107D01*
X122148525Y-54197755D01*
X122167878Y-54178402D01*
X122167878Y-54042936D01*
X122090468Y-54042936D01*
X122342049Y-54217107D02*
X122342049Y-53810707D01*
X122477516Y-53810707D02*
X122709744Y-53810707D01*
X122593630Y-54217107D02*
X122593630Y-53810707D01*
X122845211Y-54062288D02*
X123154849Y-54062288D01*
X123329020Y-53849412D02*
X123348373Y-53830060D01*
X123387078Y-53810707D01*
X123483840Y-53810707D01*
X123522544Y-53830060D01*
X123541897Y-53849412D01*
X123561249Y-53888117D01*
X123561249Y-53926821D01*
X123541897Y-53984879D01*
X123309668Y-54217107D01*
X123561249Y-54217107D01*
X123812830Y-53810707D02*
X123851535Y-53810707D01*
X123890240Y-53830060D01*
X123909592Y-53849412D01*
X123928944Y-53888117D01*
X123948297Y-53965526D01*
X123948297Y-54062288D01*
X123928944Y-54139698D01*
X123909592Y-54178402D01*
X123890240Y-54197755D01*
X123851535Y-54217107D01*
X123812830Y-54217107D01*
X123774125Y-54197755D01*
X123754773Y-54178402D01*
X123735420Y-54139698D01*
X123716068Y-54062288D01*
X123716068Y-53965526D01*
X123735420Y-53888117D01*
X123754773Y-53849412D01*
X123774125Y-53830060D01*
X123812830Y-53810707D01*
X124122468Y-54217107D02*
X124122468Y-53810707D01*
X124257935Y-54100993D01*
X124393401Y-53810707D01*
X124393401Y-54217107D01*
X124586925Y-54217107D02*
X124586925Y-53810707D01*
X124722392Y-54100993D01*
X124857859Y-53810707D01*
X124857859Y-54217107D01*
G04 #@! TO.C,J4*
D14*
X101281666Y-77222380D02*
X101281666Y-77936666D01*
X101234047Y-78079523D01*
X101138809Y-78174761D01*
X100995952Y-78222380D01*
X100900714Y-78222380D01*
X102186428Y-77555714D02*
X102186428Y-78222380D01*
X101948333Y-77174761D02*
X101710238Y-77889047D01*
X102329285Y-77889047D01*
G04 #@! TO.C,J3*
X136782380Y-112333333D02*
X137496666Y-112333333D01*
X137639523Y-112380952D01*
X137734761Y-112476190D01*
X137782380Y-112619047D01*
X137782380Y-112714285D01*
X136782380Y-111952380D02*
X136782380Y-111333333D01*
X137163333Y-111666666D01*
X137163333Y-111523809D01*
X137210952Y-111428571D01*
X137258571Y-111380952D01*
X137353809Y-111333333D01*
X137591904Y-111333333D01*
X137687142Y-111380952D01*
X137734761Y-111428571D01*
X137782380Y-111523809D01*
X137782380Y-111809523D01*
X137734761Y-111904761D01*
X137687142Y-111952380D01*
G04 #@! TO.C,J2*
X159932380Y-90103333D02*
X160646666Y-90103333D01*
X160789523Y-90150952D01*
X160884761Y-90246190D01*
X160932380Y-90389047D01*
X160932380Y-90484285D01*
X160027619Y-89674761D02*
X159980000Y-89627142D01*
X159932380Y-89531904D01*
X159932380Y-89293809D01*
X159980000Y-89198571D01*
X160027619Y-89150952D01*
X160122857Y-89103333D01*
X160218095Y-89103333D01*
X160360952Y-89150952D01*
X160932380Y-89722380D01*
X160932380Y-89103333D01*
G04 #@! TO.C,J1*
X100564880Y-103083333D02*
X101279166Y-103083333D01*
X101422023Y-103130952D01*
X101517261Y-103226190D01*
X101564880Y-103369047D01*
X101564880Y-103464285D01*
X101564880Y-102083333D02*
X101564880Y-102654761D01*
X101564880Y-102369047D02*
X100564880Y-102369047D01*
X100707738Y-102464285D01*
X100802976Y-102559523D01*
X100850595Y-102654761D01*
G04 #@! TO.C,C2*
X154083333Y-116057142D02*
X154035714Y-116104761D01*
X153892857Y-116152380D01*
X153797619Y-116152380D01*
X153654761Y-116104761D01*
X153559523Y-116009523D01*
X153511904Y-115914285D01*
X153464285Y-115723809D01*
X153464285Y-115580952D01*
X153511904Y-115390476D01*
X153559523Y-115295238D01*
X153654761Y-115200000D01*
X153797619Y-115152380D01*
X153892857Y-115152380D01*
X154035714Y-115200000D01*
X154083333Y-115247619D01*
X154464285Y-115247619D02*
X154511904Y-115200000D01*
X154607142Y-115152380D01*
X154845238Y-115152380D01*
X154940476Y-115200000D01*
X154988095Y-115247619D01*
X155035714Y-115342857D01*
X155035714Y-115438095D01*
X154988095Y-115580952D01*
X154416666Y-116152380D01*
X155035714Y-116152380D01*
G04 #@! TO.C,C1*
X146583333Y-120657142D02*
X146535714Y-120704761D01*
X146392857Y-120752380D01*
X146297619Y-120752380D01*
X146154761Y-120704761D01*
X146059523Y-120609523D01*
X146011904Y-120514285D01*
X145964285Y-120323809D01*
X145964285Y-120180952D01*
X146011904Y-119990476D01*
X146059523Y-119895238D01*
X146154761Y-119800000D01*
X146297619Y-119752380D01*
X146392857Y-119752380D01*
X146535714Y-119800000D01*
X146583333Y-119847619D01*
X147535714Y-120752380D02*
X146964285Y-120752380D01*
X147250000Y-120752380D02*
X147250000Y-119752380D01*
X147154761Y-119895238D01*
X147059523Y-119990476D01*
X146964285Y-120038095D01*
G04 #@! TO.C,BT1*
D12*
X180997028Y-58806257D02*
X181084114Y-58835285D01*
X181113142Y-58864314D01*
X181142171Y-58922371D01*
X181142171Y-59009457D01*
X181113142Y-59067514D01*
X181084114Y-59096542D01*
X181026057Y-59125571D01*
X180793828Y-59125571D01*
X180793828Y-58515971D01*
X180997028Y-58515971D01*
X181055085Y-58545000D01*
X181084114Y-58574028D01*
X181113142Y-58632085D01*
X181113142Y-58690142D01*
X181084114Y-58748200D01*
X181055085Y-58777228D01*
X180997028Y-58806257D01*
X180793828Y-58806257D01*
X181316342Y-58515971D02*
X181664685Y-58515971D01*
X181490514Y-59125571D02*
X181490514Y-58515971D01*
X182187200Y-59125571D02*
X181838857Y-59125571D01*
X182013028Y-59125571D02*
X182013028Y-58515971D01*
X181954971Y-58603057D01*
X181896914Y-58661114D01*
X181838857Y-58690142D01*
X178790857Y-48011257D02*
X178877942Y-48040285D01*
X178906971Y-48069314D01*
X178936000Y-48127371D01*
X178936000Y-48214457D01*
X178906971Y-48272514D01*
X178877942Y-48301542D01*
X178819885Y-48330571D01*
X178587657Y-48330571D01*
X178587657Y-47720971D01*
X178790857Y-47720971D01*
X178848914Y-47750000D01*
X178877942Y-47779028D01*
X178906971Y-47837085D01*
X178906971Y-47895142D01*
X178877942Y-47953200D01*
X178848914Y-47982228D01*
X178790857Y-48011257D01*
X178587657Y-48011257D01*
X179458514Y-48330571D02*
X179458514Y-48011257D01*
X179429485Y-47953200D01*
X179371428Y-47924171D01*
X179255314Y-47924171D01*
X179197257Y-47953200D01*
X179458514Y-48301542D02*
X179400457Y-48330571D01*
X179255314Y-48330571D01*
X179197257Y-48301542D01*
X179168228Y-48243485D01*
X179168228Y-48185428D01*
X179197257Y-48127371D01*
X179255314Y-48098342D01*
X179400457Y-48098342D01*
X179458514Y-48069314D01*
X179661714Y-47924171D02*
X179893942Y-47924171D01*
X179748800Y-47720971D02*
X179748800Y-48243485D01*
X179777828Y-48301542D01*
X179835885Y-48330571D01*
X179893942Y-48330571D01*
X180010057Y-47924171D02*
X180242285Y-47924171D01*
X180097142Y-47720971D02*
X180097142Y-48243485D01*
X180126171Y-48301542D01*
X180184228Y-48330571D01*
X180242285Y-48330571D01*
X180677714Y-48301542D02*
X180619657Y-48330571D01*
X180503542Y-48330571D01*
X180445485Y-48301542D01*
X180416457Y-48243485D01*
X180416457Y-48011257D01*
X180445485Y-47953200D01*
X180503542Y-47924171D01*
X180619657Y-47924171D01*
X180677714Y-47953200D01*
X180706742Y-48011257D01*
X180706742Y-48069314D01*
X180416457Y-48127371D01*
X180968000Y-48330571D02*
X180968000Y-47924171D01*
X180968000Y-48040285D02*
X180997028Y-47982228D01*
X181026057Y-47953200D01*
X181084114Y-47924171D01*
X181142171Y-47924171D01*
X181287314Y-47924171D02*
X181432457Y-48330571D01*
X181577600Y-47924171D02*
X181432457Y-48330571D01*
X181374400Y-48475714D01*
X181345371Y-48504742D01*
X181287314Y-48533771D01*
X181664685Y-48388628D02*
X182129142Y-48388628D01*
X182622628Y-48272514D02*
X182593600Y-48301542D01*
X182506514Y-48330571D01*
X182448457Y-48330571D01*
X182361371Y-48301542D01*
X182303314Y-48243485D01*
X182274285Y-48185428D01*
X182245257Y-48069314D01*
X182245257Y-47982228D01*
X182274285Y-47866114D01*
X182303314Y-47808057D01*
X182361371Y-47750000D01*
X182448457Y-47720971D01*
X182506514Y-47720971D01*
X182593600Y-47750000D01*
X182622628Y-47779028D01*
X183116114Y-48301542D02*
X183058057Y-48330571D01*
X182941942Y-48330571D01*
X182883885Y-48301542D01*
X182854857Y-48243485D01*
X182854857Y-48011257D01*
X182883885Y-47953200D01*
X182941942Y-47924171D01*
X183058057Y-47924171D01*
X183116114Y-47953200D01*
X183145142Y-48011257D01*
X183145142Y-48069314D01*
X182854857Y-48127371D01*
X183493485Y-48330571D02*
X183435428Y-48301542D01*
X183406400Y-48243485D01*
X183406400Y-47720971D01*
X183812800Y-48330571D02*
X183754742Y-48301542D01*
X183725714Y-48243485D01*
X183725714Y-47720971D01*
G04 #@! TO.C,R17*
D14*
X167082380Y-71812857D02*
X166606190Y-72146190D01*
X167082380Y-72384285D02*
X166082380Y-72384285D01*
X166082380Y-72003333D01*
X166130000Y-71908095D01*
X166177619Y-71860476D01*
X166272857Y-71812857D01*
X166415714Y-71812857D01*
X166510952Y-71860476D01*
X166558571Y-71908095D01*
X166606190Y-72003333D01*
X166606190Y-72384285D01*
X167082380Y-70860476D02*
X167082380Y-71431904D01*
X167082380Y-71146190D02*
X166082380Y-71146190D01*
X166225238Y-71241428D01*
X166320476Y-71336666D01*
X166368095Y-71431904D01*
X166082380Y-70527142D02*
X166082380Y-69860476D01*
X167082380Y-70289047D01*
G04 #@! TO.C,R16*
X168322380Y-71972857D02*
X167846190Y-72306190D01*
X168322380Y-72544285D02*
X167322380Y-72544285D01*
X167322380Y-72163333D01*
X167370000Y-72068095D01*
X167417619Y-72020476D01*
X167512857Y-71972857D01*
X167655714Y-71972857D01*
X167750952Y-72020476D01*
X167798571Y-72068095D01*
X167846190Y-72163333D01*
X167846190Y-72544285D01*
X168322380Y-71020476D02*
X168322380Y-71591904D01*
X168322380Y-71306190D02*
X167322380Y-71306190D01*
X167465238Y-71401428D01*
X167560476Y-71496666D01*
X167608095Y-71591904D01*
X167322380Y-70163333D02*
X167322380Y-70353809D01*
X167370000Y-70449047D01*
X167417619Y-70496666D01*
X167560476Y-70591904D01*
X167750952Y-70639523D01*
X168131904Y-70639523D01*
X168227142Y-70591904D01*
X168274761Y-70544285D01*
X168322380Y-70449047D01*
X168322380Y-70258571D01*
X168274761Y-70163333D01*
X168227142Y-70115714D01*
X168131904Y-70068095D01*
X167893809Y-70068095D01*
X167798571Y-70115714D01*
X167750952Y-70163333D01*
X167703333Y-70258571D01*
X167703333Y-70449047D01*
X167750952Y-70544285D01*
X167798571Y-70591904D01*
X167893809Y-70639523D01*
G04 #@! TO.C,R7*
X156322380Y-71496666D02*
X155846190Y-71830000D01*
X156322380Y-72068095D02*
X155322380Y-72068095D01*
X155322380Y-71687142D01*
X155370000Y-71591904D01*
X155417619Y-71544285D01*
X155512857Y-71496666D01*
X155655714Y-71496666D01*
X155750952Y-71544285D01*
X155798571Y-71591904D01*
X155846190Y-71687142D01*
X155846190Y-72068095D01*
X155322380Y-71163333D02*
X155322380Y-70496666D01*
X156322380Y-70925238D01*
G04 #@! TO.C,R6*
X160322380Y-71496666D02*
X159846190Y-71830000D01*
X160322380Y-72068095D02*
X159322380Y-72068095D01*
X159322380Y-71687142D01*
X159370000Y-71591904D01*
X159417619Y-71544285D01*
X159512857Y-71496666D01*
X159655714Y-71496666D01*
X159750952Y-71544285D01*
X159798571Y-71591904D01*
X159846190Y-71687142D01*
X159846190Y-72068095D01*
X159322380Y-70639523D02*
X159322380Y-70830000D01*
X159370000Y-70925238D01*
X159417619Y-70972857D01*
X159560476Y-71068095D01*
X159750952Y-71115714D01*
X160131904Y-71115714D01*
X160227142Y-71068095D01*
X160274761Y-71020476D01*
X160322380Y-70925238D01*
X160322380Y-70734761D01*
X160274761Y-70639523D01*
X160227142Y-70591904D01*
X160131904Y-70544285D01*
X159893809Y-70544285D01*
X159798571Y-70591904D01*
X159750952Y-70639523D01*
X159703333Y-70734761D01*
X159703333Y-70925238D01*
X159750952Y-71020476D01*
X159798571Y-71068095D01*
X159893809Y-71115714D01*
G04 #@! TO.C,R5*
X164322380Y-71496666D02*
X163846190Y-71830000D01*
X164322380Y-72068095D02*
X163322380Y-72068095D01*
X163322380Y-71687142D01*
X163370000Y-71591904D01*
X163417619Y-71544285D01*
X163512857Y-71496666D01*
X163655714Y-71496666D01*
X163750952Y-71544285D01*
X163798571Y-71591904D01*
X163846190Y-71687142D01*
X163846190Y-72068095D01*
X163322380Y-70591904D02*
X163322380Y-71068095D01*
X163798571Y-71115714D01*
X163750952Y-71068095D01*
X163703333Y-70972857D01*
X163703333Y-70734761D01*
X163750952Y-70639523D01*
X163798571Y-70591904D01*
X163893809Y-70544285D01*
X164131904Y-70544285D01*
X164227142Y-70591904D01*
X164274761Y-70639523D01*
X164322380Y-70734761D01*
X164322380Y-70972857D01*
X164274761Y-71068095D01*
X164227142Y-71115714D01*
G04 #@! TO.C,R4*
X152322380Y-71496666D02*
X151846190Y-71830000D01*
X152322380Y-72068095D02*
X151322380Y-72068095D01*
X151322380Y-71687142D01*
X151370000Y-71591904D01*
X151417619Y-71544285D01*
X151512857Y-71496666D01*
X151655714Y-71496666D01*
X151750952Y-71544285D01*
X151798571Y-71591904D01*
X151846190Y-71687142D01*
X151846190Y-72068095D01*
X151655714Y-70639523D02*
X152322380Y-70639523D01*
X151274761Y-70877619D02*
X151989047Y-71115714D01*
X151989047Y-70496666D01*
G04 #@! TO.C,R1*
X124322380Y-88496666D02*
X123846190Y-88830000D01*
X124322380Y-89068095D02*
X123322380Y-89068095D01*
X123322380Y-88687142D01*
X123370000Y-88591904D01*
X123417619Y-88544285D01*
X123512857Y-88496666D01*
X123655714Y-88496666D01*
X123750952Y-88544285D01*
X123798571Y-88591904D01*
X123846190Y-88687142D01*
X123846190Y-89068095D01*
X124322380Y-87544285D02*
X124322380Y-88115714D01*
X124322380Y-87830000D02*
X123322380Y-87830000D01*
X123465238Y-87925238D01*
X123560476Y-88020476D01*
X123608095Y-88115714D01*
G04 #@! TO.C,Q5*
X167634761Y-63607619D02*
X167539523Y-63560000D01*
X167444285Y-63464761D01*
X167301428Y-63321904D01*
X167206190Y-63274285D01*
X167110952Y-63274285D01*
X167158571Y-63512380D02*
X167063333Y-63464761D01*
X166968095Y-63369523D01*
X166920476Y-63179047D01*
X166920476Y-62845714D01*
X166968095Y-62655238D01*
X167063333Y-62560000D01*
X167158571Y-62512380D01*
X167349047Y-62512380D01*
X167444285Y-62560000D01*
X167539523Y-62655238D01*
X167587142Y-62845714D01*
X167587142Y-63179047D01*
X167539523Y-63369523D01*
X167444285Y-63464761D01*
X167349047Y-63512380D01*
X167158571Y-63512380D01*
X168491904Y-62512380D02*
X168015714Y-62512380D01*
X167968095Y-62988571D01*
X168015714Y-62940952D01*
X168110952Y-62893333D01*
X168349047Y-62893333D01*
X168444285Y-62940952D01*
X168491904Y-62988571D01*
X168539523Y-63083809D01*
X168539523Y-63321904D01*
X168491904Y-63417142D01*
X168444285Y-63464761D01*
X168349047Y-63512380D01*
X168110952Y-63512380D01*
X168015714Y-63464761D01*
X167968095Y-63417142D01*
G04 #@! TO.C,Q4*
X140484761Y-63607619D02*
X140389523Y-63560000D01*
X140294285Y-63464761D01*
X140151428Y-63321904D01*
X140056190Y-63274285D01*
X139960952Y-63274285D01*
X140008571Y-63512380D02*
X139913333Y-63464761D01*
X139818095Y-63369523D01*
X139770476Y-63179047D01*
X139770476Y-62845714D01*
X139818095Y-62655238D01*
X139913333Y-62560000D01*
X140008571Y-62512380D01*
X140199047Y-62512380D01*
X140294285Y-62560000D01*
X140389523Y-62655238D01*
X140437142Y-62845714D01*
X140437142Y-63179047D01*
X140389523Y-63369523D01*
X140294285Y-63464761D01*
X140199047Y-63512380D01*
X140008571Y-63512380D01*
X141294285Y-62845714D02*
X141294285Y-63512380D01*
X141056190Y-62464761D02*
X140818095Y-63179047D01*
X141437142Y-63179047D01*
G04 #@! TO.C,Q3*
X149534761Y-63607619D02*
X149439523Y-63560000D01*
X149344285Y-63464761D01*
X149201428Y-63321904D01*
X149106190Y-63274285D01*
X149010952Y-63274285D01*
X149058571Y-63512380D02*
X148963333Y-63464761D01*
X148868095Y-63369523D01*
X148820476Y-63179047D01*
X148820476Y-62845714D01*
X148868095Y-62655238D01*
X148963333Y-62560000D01*
X149058571Y-62512380D01*
X149249047Y-62512380D01*
X149344285Y-62560000D01*
X149439523Y-62655238D01*
X149487142Y-62845714D01*
X149487142Y-63179047D01*
X149439523Y-63369523D01*
X149344285Y-63464761D01*
X149249047Y-63512380D01*
X149058571Y-63512380D01*
X149820476Y-62512380D02*
X150439523Y-62512380D01*
X150106190Y-62893333D01*
X150249047Y-62893333D01*
X150344285Y-62940952D01*
X150391904Y-62988571D01*
X150439523Y-63083809D01*
X150439523Y-63321904D01*
X150391904Y-63417142D01*
X150344285Y-63464761D01*
X150249047Y-63512380D01*
X149963333Y-63512380D01*
X149868095Y-63464761D01*
X149820476Y-63417142D01*
G04 #@! TO.C,Q2*
X158584761Y-63607619D02*
X158489523Y-63560000D01*
X158394285Y-63464761D01*
X158251428Y-63321904D01*
X158156190Y-63274285D01*
X158060952Y-63274285D01*
X158108571Y-63512380D02*
X158013333Y-63464761D01*
X157918095Y-63369523D01*
X157870476Y-63179047D01*
X157870476Y-62845714D01*
X157918095Y-62655238D01*
X158013333Y-62560000D01*
X158108571Y-62512380D01*
X158299047Y-62512380D01*
X158394285Y-62560000D01*
X158489523Y-62655238D01*
X158537142Y-62845714D01*
X158537142Y-63179047D01*
X158489523Y-63369523D01*
X158394285Y-63464761D01*
X158299047Y-63512380D01*
X158108571Y-63512380D01*
X158918095Y-62607619D02*
X158965714Y-62560000D01*
X159060952Y-62512380D01*
X159299047Y-62512380D01*
X159394285Y-62560000D01*
X159441904Y-62607619D01*
X159489523Y-62702857D01*
X159489523Y-62798095D01*
X159441904Y-62940952D01*
X158870476Y-63512380D01*
X159489523Y-63512380D01*
G04 #@! TO.C,Q1*
X131434761Y-63607619D02*
X131339523Y-63560000D01*
X131244285Y-63464761D01*
X131101428Y-63321904D01*
X131006190Y-63274285D01*
X130910952Y-63274285D01*
X130958571Y-63512380D02*
X130863333Y-63464761D01*
X130768095Y-63369523D01*
X130720476Y-63179047D01*
X130720476Y-62845714D01*
X130768095Y-62655238D01*
X130863333Y-62560000D01*
X130958571Y-62512380D01*
X131149047Y-62512380D01*
X131244285Y-62560000D01*
X131339523Y-62655238D01*
X131387142Y-62845714D01*
X131387142Y-63179047D01*
X131339523Y-63369523D01*
X131244285Y-63464761D01*
X131149047Y-63512380D01*
X130958571Y-63512380D01*
X132339523Y-63512380D02*
X131768095Y-63512380D01*
X132053809Y-63512380D02*
X132053809Y-62512380D01*
X131958571Y-62655238D01*
X131863333Y-62750476D01*
X131768095Y-62798095D01*
G04 #@! TD*
M02*
