M48
; DRILL file {KiCad 5.1.6-c6e7f7d~87~ubuntu18.04.1} date Sun Oct  4 00:16:04 2020
; FORMAT={-:-/ absolute / inch / decimal}
; #@! TF.CreationDate,2020-10-04T00:16:04+02:00
; #@! TF.GenerationSoftware,Kicad,Pcbnew,5.1.6-c6e7f7d~87~ubuntu18.04.1
FMAT,2
INCH
T1C0.0157
T2C0.0197
T3C0.0236
T4C0.0295
T5C0.0314
T6C0.0315
T7C0.0335
T8C0.0394
T9C0.0433
T10C0.0511
T11C0.1260
%
G90
G05
T1
X4.0344Y-3.9951
X4.3012Y-2.6083
X4.3012Y-2.8051
X4.4685Y-2.6083
X4.5374Y-2.2047
X4.5374Y-2.6083
X4.5965Y-2.2047
X4.5965Y-2.5394
X4.6752Y-2.2047
X4.6752Y-2.4803
X4.7343Y-2.2047
X4.7835Y-3.7894
X5.0197Y-3.6811
X5.0394Y-2.2047
X5.0394Y-2.3425
X5.3346Y-2.2047
X5.3346Y-2.3327
X5.3937Y-2.2047
X5.3937Y-2.3327
X5.4846Y-2.4976
X5.5709Y-2.5
X5.5709Y-4.0453
X5.6693Y-2.2047
X5.6693Y-2.3327
X5.7283Y-2.2047
X5.7283Y-2.3327
X5.7874Y-2.4311
X5.8661Y-3.5335
X5.8858Y-2.5
X5.8957Y-3.9961
X6.0728Y-2.1654
X6.0728Y-2.2146
X6.0728Y-2.3425
X6.1713Y-3.6811
X6.2598Y-3.4843
X6.2598Y-3.6614
X6.3583Y-3.3465
X6.4272Y-4.0551
X6.437Y-2.7657
X6.5256Y-4.1929
X6.6272Y-3.3496
X6.6535Y-2.7657
T2
X6.811Y-4.4921
X6.811Y-4.5669
T4
X4.772Y-2.3425
X4.822Y-2.3425
X4.872Y-2.3425
X5.4846Y-2.3425
X5.5346Y-2.3425
X5.5846Y-2.3425
X5.1283Y-2.3425
X5.1783Y-2.3425
X5.2283Y-2.3425
X5.8409Y-2.3425
X5.8909Y-2.3425
X5.9409Y-2.3425
X6.5535Y-2.3425
X6.6035Y-2.3425
X6.6535Y-2.3425
X6.1972Y-2.3425
X6.2472Y-2.3425
X6.2972Y-2.3425
T5
X5.4039Y-1.4024
X5.4039Y-2.0504
X5.5039Y-1.4024
X5.5039Y-2.0504
X5.6039Y-1.4024
X5.6039Y-2.0504
X5.7039Y-1.4024
X5.7039Y-2.0504
X5.8039Y-1.4024
X5.8039Y-2.0504
X5.9039Y-1.4024
X5.9039Y-2.0504
X6.0039Y-1.4024
X6.0039Y-2.0504
T6
X5.0984Y-2.6083
X5.0984Y-3.0083
X4.9409Y-2.6083
X4.9409Y-3.0083
X5.0984Y-3.2776
X5.0984Y-3.6776
X6.6535Y-2.602
X6.6535Y-3.002
X6.5157Y-2.6083
X6.5157Y-3.0083
X5.8169Y-4.4488
X6.0091Y-4.4488
X5.1083Y-3.8929
X5.1083Y-4.1929
X5.2083Y-3.8929
X5.2083Y-4.1929
X5.3083Y-3.8929
X5.3083Y-4.1929
X5.4083Y-3.8929
X5.4083Y-4.1929
X5.5083Y-3.8929
X5.5083Y-4.1929
X5.6083Y-3.8929
X5.6083Y-4.1929
X5.7083Y-3.8929
X5.7083Y-4.1929
X5.8083Y-3.8929
X5.8083Y-4.1929
X5.9083Y-3.8929
X5.9083Y-4.1929
X6.0083Y-3.8929
X6.0083Y-4.1929
X6.1083Y-3.8929
X6.1083Y-4.1929
X6.2083Y-3.8929
X6.2083Y-4.1929
X6.3083Y-3.8929
X6.3083Y-4.1929
X6.4083Y-3.8929
X6.4083Y-4.1929
X4.7835Y-2.6083
X4.7835Y-3.0083
X6.3583Y-2.6083
X6.3583Y-3.0083
X6.0236Y-4.6457
X6.122Y-4.6457
X5.8858Y-2.6083
X5.8858Y-3.0083
X5.2559Y-2.6083
X5.2559Y-3.0083
X6.3142Y-4.385
X6.3142Y-4.485
X6.3142Y-4.585
X6.3142Y-4.685
X6.6142Y-4.385
X6.6142Y-4.485
X6.6142Y-4.585
X6.6142Y-4.685
X4.9409Y-3.2776
X4.9409Y-3.6776
X5.7283Y-2.6083
X5.7283Y-3.0083
X5.2657Y-3.322
X5.2657Y-3.622
X5.3657Y-3.322
X5.3657Y-3.622
X5.4657Y-3.322
X5.4657Y-3.622
X5.5657Y-3.322
X5.5657Y-3.622
X5.6657Y-3.322
X5.6657Y-3.622
X5.7657Y-3.322
X5.7657Y-3.622
X5.8657Y-3.322
X5.8657Y-3.622
X5.9657Y-3.322
X5.9657Y-3.622
X5.7283Y-4.6457
X5.8268Y-4.6457
X4.7835Y-3.2776
X4.7835Y-3.6776
X5.5709Y-2.6083
X5.5709Y-3.0083
X5.4134Y-2.6083
X5.4134Y-3.0083
X6.2008Y-2.6083
X6.2008Y-3.0083
X6.0433Y-2.6083
X6.0433Y-3.0083
T7
X3.9158Y-3.9469
X3.9158Y-4.1437
T8
X6.4272Y-3.4843
X6.4272Y-3.5843
X6.5272Y-3.4843
X6.5272Y-3.5843
X6.6272Y-3.4843
X6.6272Y-3.5843
X4.1732Y-2.7724
X4.1732Y-2.8724
X4.1732Y-2.9724
X5.115Y-4.4094
X5.215Y-4.4094
X5.315Y-4.4094
T9
X4.4685Y-3.9567
X4.4685Y-4.1339
X4.7244Y-3.9567
X4.7244Y-4.1339
X6.6929Y-3.9567
X6.6929Y-4.1339
X6.9488Y-3.9567
X6.9488Y-4.1339
T10
X7.2047Y-1.4134
X7.2047Y-2.2007
T11
X7.4803Y-1.1811
X3.9567Y-1.2008
X7.4803Y-4.7244
X3.9567Y-4.7244
T3
G00X3.7958Y-3.9075
M15
G01X3.8233Y-3.9075
M16
G05
G00X3.8233Y-4.1831
M15
G01X3.7958Y-4.1831
M16
G05
T0
M30
